<svg width="25" height="23" viewBox="0 0 25 23" fill="none" xmlns="http://www.w3.org/2000/svg">
<path d="M1.90308 1H5.90308L8.58308 14.39C8.67452 14.8504 8.92498 15.264 9.29062 15.5583C9.65626 15.8526 10.1138 16.009 10.5831 16H20.3031C20.7724 16.009 21.2299 15.8526 21.5955 15.5583C21.9612 15.264 22.2116 14.8504 22.3031 14.39L23.9031 6H6.90308M10.9031 21C10.9031 21.5523 10.4554 22 9.90308 22C9.35079 22 8.90308 21.5523 8.90308 21C8.90308 20.4477 9.35079 20 9.90308 20C10.4554 20 10.9031 20.4477 10.9031 21ZM21.9031 21C21.9031 21.5523 21.4554 22 20.9031 22C20.3508 22 19.9031 21.5523 19.9031 21C19.9031 20.4477 20.3508 20 20.9031 20C21.4554 20 21.9031 20.4477 21.9031 21Z" stroke="#235984" stroke-width="2" stroke-linecap="round" stroke-linejoin="round"/>
</svg>
