<svg width="117" height="59" viewBox="0 0 117 59" fill="none" xmlns="http://www.w3.org/2000/svg">
<path fill-rule="evenodd" clip-rule="evenodd" d="M11.1527 0.0521542C9.04979 0.442469 7.33953 1.33532 5.75535 2.86991C4.09995 4.47353 3.05006 6.5979 2.06875 10.3301C1.34195 13.0947 0.537299 18.7962 0.33056 22.6487C0.275694 23.6697 0.155385 25.6562 0.0631706 27.0632C-0.187527 30.8918 0.33403 39.0565 1.16644 44.3329C2.62419 53.5734 4.80363 57.7568 8.72655 58.8437C9.34908 59.0162 10.6845 59.0386 14.8411 58.9467C21.6749 58.7955 96.2595 58.7913 103.45 58.9416C108.335 59.0439 109.007 59.0255 109.895 58.7644C111.275 58.3589 112.11 57.8291 113.085 56.7405C114.889 54.7241 115.878 51.6508 116.779 45.261C117.109 42.9191 117.06 34.4336 116.697 31.1705C115.882 23.8379 114.72 18.6502 113.057 14.9236C110.963 10.2319 107.294 7.72193 100.558 6.37313C96.368 5.53411 94.8667 5.43506 86.5935 5.45176C79.1616 5.46678 77.7881 5.52517 67.2582 6.27407C58.1175 6.92409 56.3859 7.04053 54.4506 7.13553C53.3144 7.19122 52.1246 7.26834 51.8064 7.30681C51.4883 7.34529 48.156 7.42646 44.4012 7.48704C37.0531 7.6055 36.2319 7.55285 32.9669 6.75399C30.9481 6.26007 27.6076 5.06465 24.7866 3.82689C20.9169 2.12894 17.8598 0.944327 16.2933 0.535956C14.7782 0.140747 12.0554 -0.115413 11.1527 0.0521542ZM15.5321 3.73542C16.932 4.11882 19.9376 5.23914 21.5738 5.98737C23.4916 6.86436 24.1198 7.12878 26.2842 7.97016C30.3051 9.53362 33.4838 10.3711 36.8027 10.7415C39.0334 10.9906 44.5736 10.9617 50.1539 10.672C54.8733 10.427 56.0387 10.3527 64.9445 9.73038C74.1463 9.08745 76.1863 8.9624 81.3878 8.72278C95.8749 8.05555 104.348 9.50932 108.121 13.3094C110.774 15.981 112.561 22.1086 113.526 31.8455C113.828 34.8874 113.835 42.056 113.54 44.8602C113.285 47.2742 112.801 49.9137 112.352 51.336C111.917 52.7114 110.96 54.4408 110.348 54.9561L109.777 55.4369L59.3492 55.436C25.4648 55.4354 8.81331 55.3787 8.5912 55.2632C6.48448 54.1682 4.68927 48.1755 3.77522 39.1861C3.42223 35.7141 3.37248 24.8295 3.69325 21.2144C4.44683 12.7192 5.80559 7.49261 7.7968 5.43033C9.32825 3.84393 10.474 3.3576 12.7227 3.33887C13.6285 3.33144 14.5131 3.45615 15.5321 3.73542Z" fill="#235984"/>
<path d="M13.824 38C13.648 38 13.5 37.94 13.38 37.82C13.26 37.7 13.2 37.552 13.2 37.376V29.252C13.2 29.068 13.26 28.92 13.38 28.808C13.5 28.688 13.648 28.628 13.824 28.628C14.064 28.628 14.248 28.74 14.376 28.964L18.132 36.488H17.748L21.408 28.964C21.536 28.74 21.72 28.628 21.96 28.628C22.136 28.628 22.284 28.688 22.404 28.808C22.524 28.92 22.584 29.068 22.584 29.252V37.376C22.584 37.552 22.52 37.7 22.392 37.82C22.272 37.94 22.128 38 21.96 38C21.784 38 21.636 37.94 21.516 37.82C21.396 37.7 21.336 37.552 21.336 37.376V30.98L21.576 30.92L18.432 37.328C18.296 37.536 18.116 37.64 17.892 37.64C17.628 37.64 17.436 37.516 17.316 37.268L14.208 31.04L14.448 30.98V37.376C14.448 37.552 14.388 37.7 14.268 37.82C14.148 37.94 14 38 13.824 38ZM25.5771 38C25.3531 38 25.1811 37.904 25.0611 37.712C24.9411 37.52 24.9291 37.316 25.0251 37.1L28.3971 29.048C28.5171 28.768 28.7131 28.628 28.9851 28.628C29.2731 28.628 29.4691 28.768 29.5731 29.048L32.9571 37.124C33.0451 37.348 33.0291 37.552 32.9091 37.736C32.7971 37.912 32.6251 38 32.3931 38C32.2731 38 32.1571 37.968 32.0451 37.904C31.9411 37.832 31.8651 37.736 31.8171 37.616L28.8411 30.224H29.1771L26.1531 37.616C26.0971 37.744 26.0131 37.84 25.9011 37.904C25.7971 37.968 25.6891 38 25.5771 38ZM26.2131 35.936L26.6931 34.904H31.3971L31.8771 35.936H26.2131ZM37.1576 38C36.9816 38 36.8336 37.94 36.7136 37.82C36.5936 37.7 36.5336 37.552 36.5336 37.376V28.628H37.7816V37.376C37.7816 37.552 37.7216 37.7 37.6016 37.82C37.4816 37.94 37.3336 38 37.1576 38ZM33.9416 29.78C33.7736 29.78 33.6336 29.728 33.5216 29.624C33.4176 29.512 33.3656 29.372 33.3656 29.204C33.3656 29.036 33.4176 28.9 33.5216 28.796C33.6336 28.684 33.7736 28.628 33.9416 28.628H40.3616C40.5296 28.628 40.6656 28.684 40.7696 28.796C40.8816 28.9 40.9376 29.036 40.9376 29.204C40.9376 29.372 40.8816 29.512 40.7696 29.624C40.6656 29.728 40.5296 29.78 40.3616 29.78H33.9416ZM46.0512 38C45.8752 38 45.7272 37.94 45.6072 37.82C45.4872 37.7 45.4272 37.552 45.4272 37.376V28.628H46.6752V37.376C46.6752 37.552 46.6152 37.7 46.4952 37.82C46.3752 37.94 46.2272 38 46.0512 38ZM42.8352 29.78C42.6672 29.78 42.5272 29.728 42.4152 29.624C42.3112 29.512 42.2592 29.372 42.2592 29.204C42.2592 29.036 42.3112 28.9 42.4152 28.796C42.5272 28.684 42.6672 28.628 42.8352 28.628H49.2552C49.4232 28.628 49.5592 28.684 49.6632 28.796C49.7752 28.9 49.8312 29.036 49.8312 29.204C49.8312 29.372 49.7752 29.512 49.6632 29.624C49.5592 29.728 49.4232 29.78 49.2552 29.78H42.8352ZM52.7968 38C52.6208 38 52.4728 37.94 52.3528 37.82C52.2328 37.7 52.1728 37.552 52.1728 37.376V29.252C52.1728 29.068 52.2328 28.92 52.3528 28.808C52.4728 28.688 52.6208 28.628 52.7968 28.628H54.9568C55.5568 28.628 56.0888 28.756 56.5528 29.012C57.0168 29.26 57.3768 29.604 57.6328 30.044C57.8968 30.484 58.0288 30.996 58.0288 31.58C58.0288 32.124 57.8968 32.608 57.6328 33.032C57.3768 33.456 57.0168 33.788 56.5528 34.028C56.0888 34.268 55.5568 34.388 54.9568 34.388H53.4208V37.376C53.4208 37.552 53.3608 37.7 53.2408 37.82C53.1288 37.94 52.9808 38 52.7968 38ZM57.7768 38C57.6648 38 57.5608 37.976 57.4648 37.928C57.3768 37.88 57.3008 37.804 57.2368 37.7L55.0768 34.22L56.2888 33.872L58.2568 37.04C58.4008 37.272 58.4208 37.492 58.3168 37.7C58.2128 37.9 58.0328 38 57.7768 38ZM53.4208 33.236H54.9568C55.3248 33.236 55.6488 33.168 55.9288 33.032C56.2088 32.888 56.4288 32.692 56.5888 32.444C56.7488 32.188 56.8288 31.9 56.8288 31.58C56.8288 31.228 56.7488 30.916 56.5888 30.644C56.4288 30.372 56.2088 30.16 55.9288 30.008C55.6488 29.856 55.3248 29.78 54.9568 29.78H53.4208V33.236ZM61.3388 38C61.1628 38 61.0148 37.94 60.8948 37.82C60.7748 37.7 60.7148 37.552 60.7148 37.376V29.252C60.7148 29.068 60.7748 28.92 60.8948 28.808C61.0148 28.688 61.1628 28.628 61.3388 28.628H66.7628C66.9468 28.628 67.0948 28.684 67.2068 28.796C67.3188 28.9 67.3748 29.04 67.3748 29.216C67.3748 29.384 67.3188 29.52 67.2068 29.624C67.0948 29.728 66.9468 29.78 66.7628 29.78H61.9628V32.696H65.4068C65.5908 32.696 65.7388 32.752 65.8508 32.864C65.9628 32.968 66.0188 33.104 66.0188 33.272C66.0188 33.44 65.9628 33.58 65.8508 33.692C65.7388 33.796 65.5908 33.848 65.4068 33.848H61.9628V36.848H66.7628C66.9468 36.848 67.0948 36.9 67.2068 37.004C67.3188 37.108 67.3748 37.244 67.3748 37.412C67.3748 37.588 67.3188 37.732 67.2068 37.844C67.0948 37.948 66.9468 38 66.7628 38H61.3388ZM73.0532 38.12C72.5412 38.12 72.0532 38.04 71.5892 37.88C71.1252 37.72 70.7212 37.496 70.3772 37.208C70.0332 36.92 69.7812 36.588 69.6212 36.212C69.5412 36.044 69.5412 35.888 69.6212 35.744C69.7092 35.6 69.8532 35.508 70.0532 35.468C70.1972 35.436 70.3372 35.46 70.4732 35.54C70.6172 35.612 70.7252 35.724 70.7972 35.876C70.8932 36.076 71.0492 36.26 71.2652 36.428C71.4892 36.596 71.7572 36.732 72.0692 36.836C72.3812 36.94 72.7092 36.992 73.0532 36.992C73.4372 36.992 73.7892 36.932 74.1092 36.812C74.4372 36.692 74.7012 36.52 74.9012 36.296C75.1012 36.064 75.2012 35.78 75.2012 35.444C75.2012 35.02 75.0332 34.64 74.6972 34.304C74.3692 33.968 73.8252 33.76 73.0652 33.68C72.0732 33.584 71.2932 33.292 70.7252 32.804C70.1572 32.316 69.8732 31.712 69.8732 30.992C69.8732 30.464 70.0212 30.016 70.3172 29.648C70.6132 29.28 71.0132 29 71.5172 28.808C72.0292 28.616 72.5972 28.52 73.2212 28.52C73.7092 28.52 74.1332 28.588 74.4932 28.724C74.8612 28.86 75.1812 29.048 75.4532 29.288C75.7252 29.528 75.9612 29.812 76.1612 30.14C76.2732 30.316 76.3172 30.484 76.2932 30.644C76.2772 30.796 76.2012 30.916 76.0652 31.004C75.9132 31.1 75.7492 31.12 75.5732 31.064C75.3972 31.008 75.2652 30.904 75.1772 30.752C75.0492 30.52 74.8932 30.324 74.7092 30.164C74.5252 30.004 74.3092 29.88 74.0612 29.792C73.8132 29.696 73.5212 29.648 73.1852 29.648C72.5932 29.64 72.0972 29.752 71.6972 29.984C71.2972 30.208 71.0972 30.556 71.0972 31.028C71.0972 31.268 71.1572 31.5 71.2772 31.724C71.4052 31.94 71.6332 32.128 71.9612 32.288C72.2972 32.448 72.7772 32.56 73.4012 32.624C74.3532 32.72 75.0932 33.012 75.6212 33.5C76.1572 33.98 76.4252 34.616 76.4252 35.408C76.4252 35.864 76.3292 36.26 76.1372 36.596C75.9532 36.932 75.7012 37.216 75.3812 37.448C75.0692 37.672 74.7092 37.84 74.3012 37.952C73.9012 38.064 73.4852 38.12 73.0532 38.12ZM82.2749 38.12C81.7629 38.12 81.2749 38.04 80.8109 37.88C80.3469 37.72 79.9429 37.496 79.5989 37.208C79.2549 36.92 79.0029 36.588 78.8429 36.212C78.7629 36.044 78.7629 35.888 78.8429 35.744C78.9309 35.6 79.0749 35.508 79.2749 35.468C79.4189 35.436 79.5589 35.46 79.6949 35.54C79.8389 35.612 79.9469 35.724 80.0189 35.876C80.1149 36.076 80.2709 36.26 80.4869 36.428C80.7109 36.596 80.9789 36.732 81.2909 36.836C81.6029 36.94 81.9309 36.992 82.2749 36.992C82.6589 36.992 83.0109 36.932 83.3309 36.812C83.6589 36.692 83.9229 36.52 84.1229 36.296C84.3229 36.064 84.4229 35.78 84.4229 35.444C84.4229 35.02 84.2549 34.64 83.9189 34.304C83.5909 33.968 83.0469 33.76 82.2869 33.68C81.2949 33.584 80.5149 33.292 79.9469 32.804C79.3789 32.316 79.0949 31.712 79.0949 30.992C79.0949 30.464 79.2429 30.016 79.5389 29.648C79.8349 29.28 80.2349 29 80.7389 28.808C81.2509 28.616 81.8189 28.52 82.4429 28.52C82.9309 28.52 83.3549 28.588 83.7149 28.724C84.0829 28.86 84.4029 29.048 84.6749 29.288C84.9469 29.528 85.1829 29.812 85.3829 30.14C85.4949 30.316 85.5389 30.484 85.5149 30.644C85.4989 30.796 85.4229 30.916 85.2869 31.004C85.1349 31.1 84.9709 31.12 84.7949 31.064C84.6189 31.008 84.4869 30.904 84.3989 30.752C84.2709 30.52 84.1149 30.324 83.9309 30.164C83.7469 30.004 83.5309 29.88 83.2829 29.792C83.0349 29.696 82.7429 29.648 82.4069 29.648C81.8149 29.64 81.3189 29.752 80.9189 29.984C80.5189 30.208 80.3189 30.556 80.3189 31.028C80.3189 31.268 80.3789 31.5 80.4989 31.724C80.6269 31.94 80.8549 32.128 81.1829 32.288C81.5189 32.448 81.9989 32.56 82.6229 32.624C83.5749 32.72 84.3149 33.012 84.8429 33.5C85.3789 33.98 85.6469 34.616 85.6469 35.408C85.6469 35.864 85.5509 36.26 85.3589 36.596C85.1749 36.932 84.9229 37.216 84.6029 37.448C84.2909 37.672 83.9309 37.84 83.5229 37.952C83.1229 38.064 82.7069 38.12 82.2749 38.12ZM89.1446 38C88.9686 38 88.8206 37.94 88.7006 37.82C88.5806 37.7 88.5206 37.552 88.5206 37.376V29.252C88.5206 29.068 88.5806 28.92 88.7006 28.808C88.8206 28.688 88.9686 28.628 89.1446 28.628H94.5686C94.7526 28.628 94.9006 28.684 95.0126 28.796C95.1246 28.9 95.1806 29.04 95.1806 29.216C95.1806 29.384 95.1246 29.52 95.0126 29.624C94.9006 29.728 94.7526 29.78 94.5686 29.78H89.7686V32.696H93.2126C93.3966 32.696 93.5446 32.752 93.6566 32.864C93.7686 32.968 93.8246 33.104 93.8246 33.272C93.8246 33.44 93.7686 33.58 93.6566 33.692C93.5446 33.796 93.3966 33.848 93.2126 33.848H89.7686V36.848H94.5686C94.7526 36.848 94.9006 36.9 95.0126 37.004C95.1246 37.108 95.1806 37.244 95.1806 37.412C95.1806 37.588 95.1246 37.732 95.0126 37.844C94.9006 37.948 94.7526 38 94.5686 38H89.1446ZM100.859 38.12C100.347 38.12 99.859 38.04 99.395 37.88C98.931 37.72 98.527 37.496 98.183 37.208C97.839 36.92 97.587 36.588 97.427 36.212C97.347 36.044 97.347 35.888 97.427 35.744C97.515 35.6 97.659 35.508 97.859 35.468C98.003 35.436 98.143 35.46 98.279 35.54C98.423 35.612 98.531 35.724 98.603 35.876C98.699 36.076 98.855 36.26 99.071 36.428C99.295 36.596 99.563 36.732 99.875 36.836C100.187 36.94 100.515 36.992 100.859 36.992C101.243 36.992 101.595 36.932 101.915 36.812C102.243 36.692 102.507 36.52 102.707 36.296C102.907 36.064 103.007 35.78 103.007 35.444C103.007 35.02 102.839 34.64 102.503 34.304C102.175 33.968 101.631 33.76 100.871 33.68C99.879 33.584 99.099 33.292 98.531 32.804C97.963 32.316 97.679 31.712 97.679 30.992C97.679 30.464 97.827 30.016 98.123 29.648C98.419 29.28 98.819 29 99.323 28.808C99.835 28.616 100.403 28.52 101.027 28.52C101.515 28.52 101.939 28.588 102.299 28.724C102.667 28.86 102.987 29.048 103.259 29.288C103.531 29.528 103.767 29.812 103.967 30.14C104.079 30.316 104.123 30.484 104.099 30.644C104.083 30.796 104.007 30.916 103.871 31.004C103.719 31.1 103.555 31.12 103.379 31.064C103.203 31.008 103.071 30.904 102.983 30.752C102.855 30.52 102.699 30.324 102.515 30.164C102.331 30.004 102.115 29.88 101.867 29.792C101.619 29.696 101.327 29.648 100.991 29.648C100.399 29.64 99.903 29.752 99.503 29.984C99.103 30.208 98.903 30.556 98.903 31.028C98.903 31.268 98.963 31.5 99.083 31.724C99.211 31.94 99.439 32.128 99.767 32.288C100.103 32.448 100.583 32.56 101.207 32.624C102.159 32.72 102.899 33.012 103.427 33.5C103.963 33.98 104.231 34.616 104.231 35.408C104.231 35.864 104.135 36.26 103.943 36.596C103.759 36.932 103.507 37.216 103.187 37.448C102.875 37.672 102.515 37.84 102.107 37.952C101.707 38.064 101.291 38.12 100.859 38.12Z" fill="#235984"/>
<path d="M13.38 37.82L13.0264 38.1736H13.0264L13.38 37.82ZM13.38 28.808L13.7212 29.1735L13.7275 29.1676L13.7336 29.1616L13.38 28.808ZM14.376 28.964L14.8234 28.7407L14.8171 28.7281L14.8101 28.7159L14.376 28.964ZM18.132 36.488V36.988H18.9404L18.5794 36.2647L18.132 36.488ZM17.748 36.488L17.2984 36.2693L16.9488 36.988H17.748V36.488ZM21.408 28.964L20.9739 28.7159L20.9656 28.7303L20.9584 28.7453L21.408 28.964ZM22.404 28.808L22.0504 29.1616L22.0565 29.1676L22.0628 29.1735L22.404 28.808ZM22.392 37.82L22.05 37.4552L22.0441 37.4607L22.0384 37.4664L22.392 37.82ZM21.336 30.98L21.2147 30.4949L20.836 30.5896V30.98H21.336ZM21.576 30.92L22.0249 31.1402L22.499 30.1739L21.4547 30.4349L21.576 30.92ZM18.432 37.328L18.8505 37.6016L18.8673 37.5759L18.8809 37.5482L18.432 37.328ZM17.316 37.268L17.7661 37.0502L17.7634 37.0447L17.316 37.268ZM14.208 31.04L14.0867 30.5549L13.4825 30.706L13.7606 31.2633L14.208 31.04ZM14.448 30.98H14.948V30.3396L14.3267 30.4949L14.448 30.98ZM13.824 37.5C13.7751 37.5 13.756 37.4889 13.7336 37.4664L13.0264 38.1736C13.244 38.3911 13.5209 38.5 13.824 38.5V37.5ZM13.7336 37.4664C13.7111 37.444 13.7 37.4249 13.7 37.376H12.7C12.7 37.6791 12.8089 37.956 13.0264 38.1736L13.7336 37.4664ZM13.7 37.376V29.252H12.7V37.376H13.7ZM13.7 29.252C13.7 29.2147 13.706 29.1968 13.7084 29.1909C13.7103 29.1862 13.7128 29.1813 13.7212 29.1735L13.0388 28.4425C12.8047 28.661 12.7 28.9479 12.7 29.252H13.7ZM13.7336 29.1616C13.756 29.1391 13.7751 29.128 13.824 29.128V28.128C13.5209 28.128 13.244 28.2369 13.0264 28.4544L13.7336 29.1616ZM13.824 29.128C13.8631 29.128 13.8771 29.1361 13.882 29.1391C13.8887 29.1432 13.9116 29.159 13.9419 29.2121L14.8101 28.7159C14.6013 28.3504 14.2593 28.128 13.824 28.128V29.128ZM13.9286 29.1873L17.6846 36.7113L18.5794 36.2647L14.8234 28.7407L13.9286 29.1873ZM18.132 35.988H17.748V36.988H18.132V35.988ZM18.1976 36.7067L21.8576 29.1827L20.9584 28.7453L17.2984 36.2693L18.1976 36.7067ZM21.8421 29.2121C21.8724 29.159 21.8953 29.1432 21.902 29.1391C21.9069 29.1361 21.9209 29.128 21.96 29.128V28.128C21.5247 28.128 21.1827 28.3504 20.9739 28.7159L21.8421 29.2121ZM21.96 29.128C22.0089 29.128 22.028 29.1391 22.0504 29.1616L22.7576 28.4544C22.54 28.2369 22.2631 28.128 21.96 28.128V29.128ZM22.0628 29.1735C22.0712 29.1813 22.0737 29.1862 22.0756 29.1909C22.078 29.1968 22.084 29.2147 22.084 29.252H23.084C23.084 28.9479 22.9793 28.661 22.7452 28.4425L22.0628 29.1735ZM22.084 29.252V37.376H23.084V29.252H22.084ZM22.084 37.376C22.084 37.4143 22.0768 37.4301 22.05 37.4552L22.734 38.1848C22.9632 37.9699 23.084 37.6897 23.084 37.376H22.084ZM22.0384 37.4664C22.0111 37.4937 21.9939 37.5 21.96 37.5V38.5C22.2621 38.5 22.5329 38.3863 22.7456 38.1736L22.0384 37.4664ZM21.96 37.5C21.9111 37.5 21.892 37.4889 21.8696 37.4664L21.1624 38.1736C21.38 38.3911 21.6569 38.5 21.96 38.5V37.5ZM21.8696 37.4664C21.8471 37.444 21.836 37.4249 21.836 37.376H20.836C20.836 37.6791 20.9449 37.956 21.1624 38.1736L21.8696 37.4664ZM21.836 37.376V30.98H20.836V37.376H21.836ZM21.4573 31.4651L21.6973 31.4051L21.4547 30.4349L21.2147 30.4949L21.4573 31.4651ZM21.1271 30.6998L17.9831 37.1078L18.8809 37.5482L22.0249 31.1402L21.1271 30.6998ZM18.0135 37.0544C17.9801 37.1055 17.955 37.1232 17.9449 37.1291C17.9368 37.1337 17.9232 37.14 17.892 37.14V38.14C18.3055 38.14 18.6341 37.9326 18.8505 37.6016L18.0135 37.0544ZM17.892 37.14C17.841 37.14 17.8245 37.1291 17.8213 37.127C17.8168 37.1241 17.7944 37.1087 17.7661 37.0502L16.8659 37.4858C16.9576 37.6753 17.0912 37.8459 17.2787 37.967C17.4675 38.0889 17.679 38.14 17.892 38.14V37.14ZM17.7634 37.0447L14.6554 30.8167L13.7606 31.2633L16.8686 37.4913L17.7634 37.0447ZM14.3293 31.5251L14.5693 31.4651L14.3267 30.4949L14.0867 30.5549L14.3293 31.5251ZM13.948 30.98V37.376H14.948V30.98H13.948ZM13.948 37.376C13.948 37.4249 13.9369 37.444 13.9144 37.4664L14.6216 38.1736C14.8391 37.956 14.948 37.6791 14.948 37.376H13.948ZM13.9144 37.4664C13.892 37.4889 13.8729 37.5 13.824 37.5V38.5C14.1271 38.5 14.404 38.3911 14.6216 38.1736L13.9144 37.4664ZM25.0611 37.712L24.6371 37.977L25.0611 37.712ZM25.0251 37.1L25.4821 37.3031L25.4863 37.2931L25.0251 37.1ZM28.3971 29.048L27.9375 28.851L27.9359 28.8549L28.3971 29.048ZM29.5731 29.048L29.1043 29.2221L29.1079 29.2317L29.1119 29.2412L29.5731 29.048ZM32.9571 37.124L33.4226 36.9411L33.4182 36.9308L32.9571 37.124ZM32.9091 37.736L32.4902 37.4628L32.4872 37.4676L32.9091 37.736ZM32.0451 37.904L31.7605 38.3151L31.7782 38.3274L31.797 38.3381L32.0451 37.904ZM31.8171 37.616L32.2813 37.4303L32.2809 37.4293L31.8171 37.616ZM28.8411 30.224V29.724H28.1008L28.3772 30.4107L28.8411 30.224ZM29.1771 30.224L29.6398 30.4133L29.9218 29.724H29.1771V30.224ZM26.1531 37.616L26.6113 37.8165L26.6158 37.8053L26.1531 37.616ZM25.9011 37.904L25.653 37.4699L25.6459 37.4739L25.639 37.4782L25.9011 37.904ZM26.2131 35.936L25.7597 35.7251L25.4291 36.436H26.2131V35.936ZM26.6931 34.904V34.404H26.3742L26.2397 34.6931L26.6931 34.904ZM31.3971 34.904L31.8504 34.6931L31.7159 34.404H31.3971V34.904ZM31.8771 35.936V36.436H32.6611L32.3304 35.7251L31.8771 35.936ZM25.5771 37.5C25.5385 37.5 25.5255 37.4924 25.5237 37.4914C25.5217 37.4903 25.5071 37.4823 25.4851 37.447L24.6371 37.977C24.8472 38.3133 25.1784 38.5 25.5771 38.5V37.5ZM25.4851 37.447C25.4646 37.4142 25.4618 37.3953 25.4612 37.3856C25.4606 37.375 25.4613 37.3496 25.482 37.3031L24.5682 36.8969C24.4082 37.2568 24.4245 37.6369 24.6371 37.977L25.4851 37.447ZM25.4863 37.2931L28.8583 29.2411L27.9359 28.8549L24.5639 36.9069L25.4863 37.2931ZM28.8566 29.245C28.89 29.1671 28.9185 29.1443 28.9247 29.1399C28.9271 29.1381 28.9392 29.128 28.9851 29.128V28.128C28.7589 28.128 28.537 28.1879 28.3434 28.3261C28.1536 28.4617 28.0241 28.6489 27.9375 28.851L28.8566 29.245ZM28.9851 29.128C29.0166 29.128 29.0355 29.1318 29.0449 29.1346C29.0535 29.1371 29.0566 29.1392 29.0574 29.1399C29.0584 29.1406 29.0632 29.1441 29.0709 29.1549C29.0791 29.1663 29.0914 29.1872 29.1043 29.2221L30.0418 28.8739C29.9634 28.6629 29.8356 28.4668 29.6387 28.3261C29.4403 28.1845 29.2124 28.128 28.9851 28.128V29.128ZM29.1119 29.2412L32.4959 37.3172L33.4182 36.9308L30.0342 28.8548L29.1119 29.2412ZM32.4917 37.3068C32.5271 37.397 32.5125 37.4288 32.4903 37.4629L33.3279 38.0091C33.5457 37.6752 33.563 37.299 33.4224 36.9412L32.4917 37.3068ZM32.4872 37.4676C32.4804 37.4783 32.4754 37.4834 32.4734 37.4853C32.4715 37.487 32.4702 37.4879 32.4683 37.4889C32.4656 37.4903 32.4456 37.5 32.3931 37.5V38.5C32.7733 38.5 33.1155 38.3429 33.3309 38.0044L32.4872 37.4676ZM32.3931 37.5C32.3666 37.5 32.3354 37.4941 32.2931 37.4699L31.797 38.3381C31.9787 38.4419 32.1796 38.5 32.3931 38.5V37.5ZM32.3297 37.4929C32.3082 37.4781 32.2937 37.4613 32.2813 37.4303L31.3528 37.8017C31.4364 38.0107 31.5739 38.1859 31.7605 38.3151L32.3297 37.4929ZM32.2809 37.4293L29.3049 30.0373L28.3772 30.4107L31.3532 37.8027L32.2809 37.4293ZM28.8411 30.724H29.1771V29.724H28.8411V30.724ZM28.7143 30.0347L25.6903 37.4267L26.6158 37.8053L29.6398 30.4133L28.7143 30.0347ZM25.695 37.4156C25.6783 37.4538 25.6638 37.4637 25.653 37.4699L26.1491 38.3381C26.3623 38.2163 26.5159 38.0342 26.6111 37.8164L25.695 37.4156ZM25.639 37.4782C25.6064 37.4982 25.5882 37.5 25.5771 37.5V38.5C25.7899 38.5 25.9877 38.4378 26.1631 38.3298L25.639 37.4782ZM26.6664 36.1469L27.1464 35.1149L26.2397 34.6931L25.7597 35.7251L26.6664 36.1469ZM26.6931 35.404H31.3971V34.404H26.6931V35.404ZM30.9437 35.1149L31.4237 36.1469L32.3304 35.7251L31.8504 34.6931L30.9437 35.1149ZM31.8771 35.436H26.2131V36.436H31.8771V35.436ZM36.7136 37.82L36.3601 38.1736L36.7136 37.82ZM36.5336 28.628V28.128H36.0336V28.628H36.5336ZM37.7816 28.628H38.2816V28.128H37.7816V28.628ZM37.6016 37.82L37.9552 38.1736L37.6016 37.82ZM33.5216 29.624L33.1552 29.9642L33.1678 29.9778L33.1814 29.9904L33.5216 29.624ZM33.5216 28.796L33.1681 28.4424V28.4424L33.5216 28.796ZM40.7696 28.796L40.4032 29.1362L40.4158 29.1498L40.4294 29.1624L40.7696 28.796ZM40.7696 29.624L41.1232 29.9776V29.9776L40.7696 29.624ZM37.1576 37.5C37.1087 37.5 37.0896 37.4889 37.0672 37.4664L36.3601 38.1736C36.5777 38.3911 36.8545 38.5 37.1576 38.5V37.5ZM37.0672 37.4664C37.0448 37.444 37.0336 37.4249 37.0336 37.376H36.0336C36.0336 37.6791 36.1425 37.956 36.3601 38.1736L37.0672 37.4664ZM37.0336 37.376V28.628H36.0336V37.376H37.0336ZM36.5336 29.128H37.7816V28.128H36.5336V29.128ZM37.2816 28.628V37.376H38.2816V28.628H37.2816ZM37.2816 37.376C37.2816 37.4249 37.2705 37.444 37.2481 37.4664L37.9552 38.1736C38.1728 37.956 38.2816 37.6791 38.2816 37.376H37.2816ZM37.2481 37.4664C37.2257 37.4889 37.2065 37.5 37.1576 37.5V38.5C37.4607 38.5 37.7376 38.3911 37.9552 38.1736L37.2481 37.4664ZM33.9416 29.28C33.8862 29.28 33.8719 29.2669 33.8619 29.2576L33.1814 29.9904C33.3954 30.1891 33.661 30.28 33.9416 30.28V29.28ZM33.888 29.2838C33.8787 29.2738 33.8656 29.2594 33.8656 29.204H32.8656C32.8656 29.4846 32.9565 29.7502 33.1552 29.9642L33.888 29.2838ZM33.8656 29.204C33.8656 29.1718 33.8705 29.1575 33.8717 29.1546C33.872 29.1536 33.8723 29.1531 33.8724 29.1529C33.8725 29.1527 33.8726 29.1526 33.8726 29.1525C33.8726 29.1524 33.8728 29.1522 33.8731 29.1518C33.8735 29.1514 33.8741 29.1506 33.8752 29.1496L33.1681 28.4424C32.9567 28.6538 32.8656 28.9239 32.8656 29.204H33.8656ZM33.8752 29.1496C33.8873 29.1375 33.8973 29.128 33.9416 29.128V28.128C33.6499 28.128 33.38 28.2305 33.1681 28.4424L33.8752 29.1496ZM33.9416 29.128H40.3616V28.128H33.9416V29.128ZM40.3616 29.128C40.3758 29.128 40.3854 29.1292 40.391 29.1302C40.3966 29.1312 40.399 29.1322 40.3993 29.1323C40.3995 29.1324 40.3994 29.1324 40.3992 29.1323C40.3991 29.1323 40.3991 29.1322 40.399 29.1322C40.3989 29.1321 40.3989 29.1321 40.3989 29.1321C40.3989 29.1321 40.3992 29.1323 40.3999 29.1329C40.4005 29.1335 40.4017 29.1345 40.4032 29.1362L41.136 28.4558C40.9275 28.2312 40.6533 28.128 40.3616 28.128V29.128ZM40.4294 29.1624C40.4311 29.164 40.4321 29.1651 40.4327 29.1658C40.4333 29.1664 40.4335 29.1667 40.4335 29.1667C40.4335 29.1667 40.4335 29.1667 40.4335 29.1666C40.4334 29.1666 40.4334 29.1665 40.4333 29.1664C40.4332 29.1662 40.4332 29.1662 40.4333 29.1664C40.4334 29.1666 40.4344 29.169 40.4354 29.1746C40.4364 29.1802 40.4376 29.1898 40.4376 29.204H41.4376C41.4376 28.9123 41.3345 28.6382 41.1099 28.4296L40.4294 29.1624ZM40.4376 29.204C40.4376 29.2483 40.4282 29.2583 40.4161 29.2704L41.1232 29.9776C41.3351 29.7657 41.4376 29.4957 41.4376 29.204H40.4376ZM40.4161 29.2704C40.415 29.2715 40.4142 29.2722 40.4138 29.2725C40.4134 29.2728 40.4132 29.273 40.4131 29.273C40.4131 29.2731 40.413 29.2731 40.4127 29.2732C40.4125 29.2734 40.412 29.2736 40.4111 29.274C40.4081 29.2751 40.3938 29.28 40.3616 29.28V30.28C40.6417 30.28 40.9118 30.1889 41.1232 29.9776L40.4161 29.2704ZM40.3616 29.28H33.9416V30.28H40.3616V29.28ZM45.6072 37.82L45.2537 38.1736L45.6072 37.82ZM45.4272 28.628V28.128H44.9272V28.628H45.4272ZM46.6752 28.628H47.1752V28.128H46.6752V28.628ZM46.4952 37.82L46.8488 38.1736L46.4952 37.82ZM42.4152 29.624L42.0488 29.9642L42.0614 29.9778L42.075 29.9904L42.4152 29.624ZM42.4152 28.796L42.0617 28.4424V28.4424L42.4152 28.796ZM49.6632 28.796L49.2968 29.1362L49.3094 29.1498L49.323 29.1624L49.6632 28.796ZM49.6632 29.624L50.0168 29.9776L50.0168 29.9776L49.6632 29.624ZM46.0512 37.5C46.0023 37.5 45.9832 37.4889 45.9608 37.4664L45.2537 38.1736C45.4712 38.3911 45.7481 38.5 46.0512 38.5V37.5ZM45.9608 37.4664C45.9384 37.444 45.9272 37.4249 45.9272 37.376H44.9272C44.9272 37.6791 45.0361 37.956 45.2537 38.1736L45.9608 37.4664ZM45.9272 37.376V28.628H44.9272V37.376H45.9272ZM45.4272 29.128H46.6752V28.128H45.4272V29.128ZM46.1752 28.628V37.376H47.1752V28.628H46.1752ZM46.1752 37.376C46.1752 37.4249 46.1641 37.444 46.1417 37.4664L46.8488 38.1736C47.0664 37.956 47.1752 37.6791 47.1752 37.376H46.1752ZM46.1417 37.4664C46.1192 37.4889 46.1001 37.5 46.0512 37.5V38.5C46.3543 38.5 46.6312 38.3911 46.8488 38.1736L46.1417 37.4664ZM42.8352 29.28C42.7798 29.28 42.7655 29.2669 42.7554 29.2576L42.075 29.9904C42.289 30.1891 42.5546 30.28 42.8352 30.28V29.28ZM42.7816 29.2838C42.7723 29.2738 42.7592 29.2594 42.7592 29.204H41.7592C41.7592 29.4846 41.8501 29.7502 42.0488 29.9642L42.7816 29.2838ZM42.7592 29.204C42.7592 29.1718 42.7641 29.1575 42.7652 29.1546C42.7656 29.1536 42.7659 29.1531 42.766 29.1529C42.7661 29.1527 42.7661 29.1526 42.7662 29.1525C42.7662 29.1524 42.7664 29.1522 42.7667 29.1518C42.767 29.1514 42.7677 29.1506 42.7688 29.1496L42.0617 28.4424C41.8503 28.6538 41.7592 28.9239 41.7592 29.204H42.7592ZM42.7688 29.1496C42.7809 29.1375 42.7909 29.128 42.8352 29.128V28.128C42.5435 28.128 42.2736 28.2305 42.0617 28.4424L42.7688 29.1496ZM42.8352 29.128H49.2552V28.128H42.8352V29.128ZM49.2552 29.128C49.2694 29.128 49.279 29.1292 49.2846 29.1302C49.2902 29.1312 49.2926 29.1322 49.2928 29.1323C49.293 29.1324 49.293 29.1324 49.2928 29.1323C49.2927 29.1323 49.2926 29.1322 49.2926 29.1322C49.2925 29.1321 49.2925 29.1321 49.2925 29.1321C49.2925 29.1321 49.2928 29.1323 49.2935 29.1329C49.2941 29.1335 49.2953 29.1345 49.2968 29.1362L50.0296 28.4558C49.8211 28.2312 49.5469 28.128 49.2552 28.128V29.128ZM49.323 29.1624C49.3247 29.164 49.3257 29.1651 49.3263 29.1658C49.3269 29.1664 49.3271 29.1667 49.3271 29.1667C49.3271 29.1667 49.3271 29.1667 49.327 29.1666C49.327 29.1666 49.327 29.1665 49.3269 29.1664C49.3268 29.1662 49.3268 29.1662 49.3269 29.1664C49.327 29.1666 49.328 29.169 49.329 29.1746C49.33 29.1802 49.3312 29.1898 49.3312 29.204H50.3312C50.3312 28.9123 50.228 28.6382 50.0034 28.4296L49.323 29.1624ZM49.3312 29.204C49.3312 29.2483 49.3218 29.2583 49.3097 29.2704L50.0168 29.9776C50.2287 29.7657 50.3312 29.4957 50.3312 29.204H49.3312ZM49.3097 29.2704C49.3086 29.2715 49.3078 29.2722 49.3074 29.2725C49.307 29.2728 49.3068 29.273 49.3067 29.273C49.3067 29.2731 49.3065 29.2731 49.3063 29.2732C49.3061 29.2734 49.3056 29.2736 49.3046 29.274C49.3017 29.2751 49.2874 29.28 49.2552 29.28V30.28C49.5353 30.28 49.8054 30.1889 50.0168 29.9776L49.3097 29.2704ZM49.2552 29.28H42.8352V30.28H49.2552V29.28ZM52.3528 37.82L51.9993 38.1736L52.3528 37.82ZM52.3528 28.808L52.694 29.1735L52.7003 29.1676L52.7064 29.1616L52.3528 28.808ZM56.5528 29.012L56.3113 29.4498L56.3171 29.453L56.5528 29.012ZM57.6328 30.044L57.2006 30.2955L57.2041 30.3012L57.6328 30.044ZM57.6328 33.032L57.2083 32.7677L57.2048 32.7736L57.6328 33.032ZM56.5528 34.028L56.7825 34.4721L56.5528 34.028ZM53.4208 34.388V33.888H52.9208V34.388H53.4208ZM53.2408 37.82L52.8873 37.4664L52.8812 37.4725L52.8753 37.4788L53.2408 37.82ZM57.4648 37.928L57.2254 38.3669L57.2332 38.3712L57.2412 38.3752L57.4648 37.928ZM57.2368 37.7L57.6626 37.4379L57.6616 37.4363L57.2368 37.7ZM55.0768 34.22L54.9388 33.7394L54.3033 33.9219L54.652 34.4837L55.0768 34.22ZM56.2888 33.872L56.7135 33.6082L56.5141 33.2871L56.1508 33.3914L56.2888 33.872ZM58.2568 37.04L58.6816 36.7763L58.6815 36.7762L58.2568 37.04ZM58.3168 37.7L58.7605 37.9307L58.764 37.9236L58.3168 37.7ZM53.4208 33.236H52.9208V33.736H53.4208V33.236ZM55.9288 33.032L56.1473 33.4819L56.1575 33.4766L55.9288 33.032ZM56.5888 32.444L57.009 32.7151L57.0128 32.709L56.5888 32.444ZM55.9288 30.008L55.6903 30.4474V30.4474L55.9288 30.008ZM53.4208 29.78V29.28H52.9208V29.78H53.4208ZM52.7968 37.5C52.7479 37.5 52.7288 37.4889 52.7064 37.4664L51.9993 38.1736C52.2168 38.3911 52.4937 38.5 52.7968 38.5V37.5ZM52.7064 37.4664C52.6839 37.444 52.6728 37.4249 52.6728 37.376H51.6728C51.6728 37.6791 51.7817 37.956 51.9993 38.1736L52.7064 37.4664ZM52.6728 37.376V29.252H51.6728V37.376H52.6728ZM52.6728 29.252C52.6728 29.2147 52.6788 29.1968 52.6812 29.1909C52.6831 29.1862 52.6856 29.1813 52.694 29.1735L52.0117 28.4425C51.7775 28.661 51.6728 28.9479 51.6728 29.252H52.6728ZM52.7064 29.1616C52.7288 29.1391 52.7479 29.128 52.7968 29.128V28.128C52.4937 28.128 52.2168 28.2369 51.9993 28.4544L52.7064 29.1616ZM52.7968 29.128H54.9568V28.128H52.7968V29.128ZM54.9568 29.128C55.4837 29.128 55.9306 29.2397 56.3113 29.4498L56.7944 28.5742C56.2471 28.2723 55.63 28.128 54.9568 28.128V29.128ZM56.3171 29.453C56.7022 29.6588 56.9929 29.9384 57.2006 30.2954L58.065 29.7926C57.7607 29.2696 57.3314 28.8612 56.7885 28.571L56.3171 29.453ZM57.2041 30.3012C57.4153 30.6533 57.5288 31.0738 57.5288 31.58H58.5288C58.5288 30.9182 58.3783 30.3147 58.0616 29.7868L57.2041 30.3012ZM57.5288 31.58C57.5288 32.0392 57.4186 32.4301 57.2084 32.7677L58.0573 33.2963C58.375 32.7859 58.5288 32.2088 58.5288 31.58H57.5288ZM57.2048 32.7736C56.9991 33.1142 56.7098 33.3839 56.3231 33.5839L56.7825 34.4721C57.3238 34.1921 57.7545 33.7978 58.0608 33.2904L57.2048 32.7736ZM56.3231 33.5839C55.94 33.782 55.4888 33.888 54.9568 33.888V34.888C55.6248 34.888 56.2376 34.754 56.7825 34.4721L56.3231 33.5839ZM54.9568 33.888H53.4208V34.888H54.9568V33.888ZM52.9208 34.388V37.376H53.9208V34.388H52.9208ZM52.9208 37.376C52.9208 37.4249 52.9097 37.444 52.8873 37.4664L53.5944 38.1736C53.8119 37.956 53.9208 37.6791 53.9208 37.376H52.9208ZM52.8753 37.4788C52.8675 37.4872 52.8626 37.4897 52.858 37.4916C52.852 37.494 52.8341 37.5 52.7968 37.5V38.5C53.1009 38.5 53.3878 38.3953 53.6063 38.1612L52.8753 37.4788ZM57.7768 37.5C57.739 37.5 57.7119 37.4925 57.6884 37.4808L57.2412 38.3752C57.4097 38.4595 57.5907 38.5 57.7768 38.5V37.5ZM57.7042 37.4891C57.7078 37.491 57.6909 37.4839 57.6626 37.438L56.811 37.962C56.9107 38.1241 57.0458 38.269 57.2254 38.3669L57.7042 37.4891ZM57.6616 37.4363L55.5016 33.9563L54.652 34.4837L56.812 37.9637L57.6616 37.4363ZM55.2148 34.7006L56.4268 34.3526L56.1508 33.3914L54.9388 33.7394L55.2148 34.7006ZM55.8641 34.1358L57.8321 37.3038L58.6815 36.7762L56.7135 33.6082L55.8641 34.1358ZM57.832 37.3037C57.9032 37.4183 57.8813 37.453 57.8696 37.4764L58.764 37.9236C58.9603 37.531 58.8985 37.1257 58.6816 36.7763L57.832 37.3037ZM57.8732 37.4693C57.8667 37.4818 57.8622 37.4867 57.8615 37.4875C57.8609 37.4881 57.8612 37.4878 57.861 37.4879C57.8605 37.4882 57.8554 37.491 57.8428 37.4939C57.8298 37.4969 57.8085 37.5 57.7768 37.5V38.5C57.9694 38.5 58.1664 38.4622 58.3466 38.3621C58.5304 38.26 58.6676 38.1091 58.7604 37.9307L57.8732 37.4693ZM53.4208 33.736H54.9568V32.736H53.4208V33.736ZM54.9568 33.736C55.3868 33.736 55.7879 33.6563 56.1473 33.4818L55.7104 32.5822C55.5098 32.6797 55.2628 32.736 54.9568 32.736V33.736ZM56.1575 33.4766C56.51 33.2953 56.7983 33.0416 57.009 32.7151L56.1687 32.1729C56.0594 32.3424 55.9076 32.4807 55.7001 32.5874L56.1575 33.4766ZM57.0128 32.709C57.2255 32.3687 57.3288 31.9878 57.3288 31.58H56.3288C56.3288 31.8122 56.2721 32.0073 56.1648 32.179L57.0128 32.709ZM57.3288 31.58C57.3288 31.1494 57.23 30.7479 57.0198 30.3905L56.1578 30.8975C56.2676 31.0841 56.3288 31.3066 56.3288 31.58H57.3288ZM57.0198 30.3905C56.8133 30.0394 56.5264 29.7635 56.1674 29.5686L55.6903 30.4474C55.8912 30.5565 56.0444 30.7046 56.1578 30.8975L57.0198 30.3905ZM56.1674 29.5686C55.8035 29.371 55.3951 29.28 54.9568 29.28V30.28C55.2545 30.28 55.4941 30.341 55.6903 30.4474L56.1674 29.5686ZM54.9568 29.28H53.4208V30.28H54.9568V29.28ZM52.9208 29.78V33.236H53.9208V29.78H52.9208ZM60.8948 37.82L60.5413 38.1736L60.8948 37.82ZM60.8948 28.808L61.236 29.1735L61.2423 29.1676L61.2484 29.1616L60.8948 28.808ZM67.2068 28.796L66.8533 29.1496L66.8598 29.1561L66.8666 29.1624L67.2068 28.796ZM67.2068 29.624L67.5471 29.9904V29.9904L67.2068 29.624ZM61.9628 29.78V29.28H61.4628V29.78H61.9628ZM61.9628 32.696H61.4628V33.196H61.9628V32.696ZM65.8508 32.864L65.4973 33.2176L65.5038 33.2241L65.5106 33.2304L65.8508 32.864ZM65.8508 33.692L66.1911 34.0584L66.1978 34.0521L66.2044 34.0456L65.8508 33.692ZM61.9628 33.848V33.348H61.4628V33.848H61.9628ZM61.9628 36.848H61.4628V37.348H61.9628V36.848ZM67.2068 37.004L67.5471 36.6376L67.2068 37.004ZM67.2068 37.844L67.5471 38.2104L67.5539 38.2041L67.5604 38.1976L67.2068 37.844ZM61.3388 37.5C61.29 37.5 61.2708 37.4889 61.2484 37.4664L60.5413 38.1736C60.7589 38.3911 61.0357 38.5 61.3388 38.5V37.5ZM61.2484 37.4664C61.226 37.444 61.2148 37.4249 61.2148 37.376H60.2148C60.2148 37.6791 60.3237 37.956 60.5413 38.1736L61.2484 37.4664ZM61.2148 37.376V29.252H60.2148V37.376H61.2148ZM61.2148 29.252C61.2148 29.2147 61.2208 29.1968 61.2232 29.1909C61.2251 29.1862 61.2277 29.1813 61.236 29.1735L60.5537 28.4425C60.3196 28.661 60.2148 28.9479 60.2148 29.252H61.2148ZM61.2484 29.1616C61.2708 29.1391 61.29 29.128 61.3388 29.128V28.128C61.0357 28.128 60.7589 28.2369 60.5413 28.4544L61.2484 29.1616ZM61.3388 29.128H66.7628V28.128H61.3388V29.128ZM66.7628 29.128C66.8374 29.128 66.8503 29.1465 66.8533 29.1496L67.5604 28.4424C67.3394 28.2215 67.0563 28.128 66.7628 28.128V29.128ZM66.8666 29.1624C66.8686 29.1643 66.8689 29.1649 66.8685 29.1643C66.8681 29.1637 66.8681 29.1635 66.8686 29.1647C66.8694 29.1666 66.8748 29.1811 66.8748 29.216H67.8748C67.8748 28.9241 67.7767 28.6429 67.5471 28.4296L66.8666 29.1624ZM66.8748 29.216C66.8748 29.2302 66.8737 29.2398 66.8726 29.2454C66.8716 29.251 66.8706 29.2534 66.8705 29.2536C66.8704 29.2538 66.8704 29.2538 66.8705 29.2536C66.8706 29.2535 66.8706 29.2534 66.8707 29.2534C66.8707 29.2533 66.8707 29.2533 66.8707 29.2533C66.8707 29.2533 66.8705 29.2536 66.8699 29.2542C66.8694 29.2549 66.8683 29.256 66.8666 29.2576L67.5471 29.9904C67.7717 29.7818 67.8748 29.5077 67.8748 29.216H66.8748ZM66.8666 29.2576C66.8653 29.2589 66.8478 29.28 66.7628 29.28V30.28C67.0458 30.28 67.3244 30.1971 67.5471 29.9904L66.8666 29.2576ZM66.7628 29.28H61.9628V30.28H66.7628V29.28ZM61.4628 29.78V32.696H62.4628V29.78H61.4628ZM61.9628 33.196H65.4068V32.196H61.9628V33.196ZM65.4068 33.196C65.4814 33.196 65.4943 33.2145 65.4973 33.2176L66.2044 32.5104C65.9834 32.2895 65.7003 32.196 65.4068 32.196V33.196ZM65.5106 33.2304C65.5123 33.232 65.5134 33.2331 65.5139 33.2338C65.5145 33.2344 65.5147 33.2347 65.5147 33.2347C65.5147 33.2347 65.5147 33.2347 65.5147 33.2346C65.5146 33.2346 65.5146 33.2345 65.5145 33.2344C65.5144 33.2342 65.5144 33.2342 65.5145 33.2344C65.5146 33.2346 65.5156 33.237 65.5166 33.2426C65.5177 33.2482 65.5188 33.2578 65.5188 33.272H66.5188C66.5188 32.9803 66.4157 32.7062 66.1911 32.4976L65.5106 33.2304ZM65.5188 33.272C65.5188 33.3163 65.5094 33.3263 65.4973 33.3384L66.2044 34.0456C66.4163 33.8337 66.5188 33.5637 66.5188 33.272H65.5188ZM65.5106 33.3256C65.5093 33.3269 65.4918 33.348 65.4068 33.348V34.348C65.6898 34.348 65.9684 34.2651 66.1911 34.0584L65.5106 33.3256ZM65.4068 33.348H61.9628V34.348H65.4068V33.348ZM61.4628 33.848V36.848H62.4628V33.848H61.4628ZM61.9628 37.348H66.7628V36.348H61.9628V37.348ZM66.7628 37.348C66.8478 37.348 66.8653 37.3691 66.8666 37.3704L67.5471 36.6376C67.3244 36.4309 67.0458 36.348 66.7628 36.348V37.348ZM66.8666 37.3704C66.8683 37.372 66.8694 37.3731 66.8699 37.3738C66.8705 37.3744 66.8707 37.3747 66.8707 37.3747C66.8707 37.3747 66.8707 37.3747 66.8707 37.3746C66.8706 37.3746 66.8706 37.3745 66.8705 37.3744C66.8704 37.3742 66.8704 37.3742 66.8705 37.3744C66.8706 37.3746 66.8716 37.377 66.8726 37.3826C66.8737 37.3882 66.8748 37.3978 66.8748 37.412H67.8748C67.8748 37.1203 67.7717 36.8462 67.5471 36.6376L66.8666 37.3704ZM66.8748 37.412C66.8748 37.4715 66.8607 37.483 66.8533 37.4904L67.5604 38.1976C67.777 37.981 67.8748 37.7045 67.8748 37.412H66.8748ZM66.8666 37.4776C66.8653 37.4789 66.8478 37.5 66.7628 37.5V38.5C67.0458 38.5 67.3244 38.4171 67.5471 38.2104L66.8666 37.4776ZM66.7628 37.5H61.3388V38.5H66.7628V37.5ZM71.5892 37.88L71.7522 37.4073L71.5892 37.88ZM70.3772 37.208L70.0562 37.5914L70.3772 37.208ZM69.6212 36.212L70.0813 36.0162L70.0771 36.0065L70.0726 35.997L69.6212 36.212ZM69.6212 35.744L69.1945 35.4833L69.1891 35.4921L69.1841 35.5012L69.6212 35.744ZM70.0532 35.468L70.1513 35.9584L70.1617 35.9561L70.0532 35.468ZM70.4732 35.54L70.2197 35.971L70.2344 35.9796L70.2496 35.9872L70.4732 35.54ZM70.7972 35.876L70.3453 36.09L70.3464 36.0924L70.7972 35.876ZM71.2652 36.428L70.9582 36.8227L70.9652 36.828L71.2652 36.428ZM72.0692 36.836L71.9111 37.3103L72.0692 36.836ZM74.1092 36.812L73.9374 36.3424L73.9336 36.3438L74.1092 36.812ZM74.9012 36.296L75.2742 36.6291L75.2799 36.6225L74.9012 36.296ZM74.6972 34.304L74.3394 34.6533L74.3436 34.6576L74.6972 34.304ZM73.0652 33.68L73.1175 33.1827L73.1133 33.1823L73.0652 33.68ZM70.7252 32.804L71.051 32.4247V32.4247L70.7252 32.804ZM71.5172 28.808L71.3416 28.3398L71.3392 28.3408L71.5172 28.808ZM74.4932 28.724L74.3165 29.1917L74.3199 29.193L74.4932 28.724ZM75.4532 29.288L75.1224 29.6629L75.4532 29.288ZM76.1612 30.14L75.7342 30.4004L75.7394 30.4084L76.1612 30.14ZM76.2932 30.644L75.7987 30.5698L75.7971 30.5807L75.7959 30.5917L76.2932 30.644ZM76.0652 31.004L76.3322 31.4268L76.3368 31.4238L76.0652 31.004ZM75.5732 31.064L75.4216 31.5405V31.5405L75.5732 31.064ZM75.1772 30.752L74.7393 30.9936L74.7445 31.0025L75.1772 30.752ZM74.7092 30.164L75.0373 29.7867V29.7867L74.7092 30.164ZM74.0612 29.792L73.8807 30.2583L73.8873 30.2608L73.894 30.2632L74.0612 29.792ZM73.1852 29.648L73.1784 30.148H73.1852V29.648ZM71.6972 29.984L71.9415 30.4203L71.948 30.4165L71.6972 29.984ZM71.2772 31.724L70.8364 31.9601L70.8415 31.9696L70.847 31.9789L71.2772 31.724ZM71.9612 32.288L71.742 32.7374L71.7462 32.7394L71.9612 32.288ZM73.4012 32.624L73.3502 33.1214L73.351 33.1215L73.4012 32.624ZM75.6212 33.5L75.2818 33.8672L75.2876 33.8725L75.6212 33.5ZM76.1372 36.596L75.703 36.3479L75.6986 36.3558L76.1372 36.596ZM75.3812 37.448L75.6728 37.8542L75.6747 37.8528L75.3812 37.448ZM74.3012 37.952L74.1688 37.4698L74.1664 37.4705L74.3012 37.952ZM73.0532 37.62C72.5942 37.62 72.1615 37.5485 71.7522 37.4073L71.4262 38.3527C71.9449 38.5315 72.4881 38.62 73.0532 38.62V37.62ZM71.7522 37.4073C71.3404 37.2653 70.9912 37.0699 70.6982 36.8246L70.0562 37.5914C70.4512 37.9221 70.91 38.1747 71.4262 38.3527L71.7522 37.4073ZM70.6982 36.8246C70.4087 36.5822 70.2074 36.3127 70.0813 36.0162L69.1611 36.4078C69.355 36.8633 69.6577 37.2578 70.0562 37.5914L70.6982 36.8246ZM70.0726 35.997C70.0655 35.9821 70.0627 35.9726 70.0616 35.9684C70.0606 35.9644 70.0612 35.9649 70.0612 35.969C70.0612 35.9733 70.0606 35.9783 70.0593 35.9831C70.0581 35.9877 70.057 35.9891 70.0583 35.9868L69.1841 35.5012C69.0145 35.8064 69.0307 36.1349 69.1698 36.427L70.0726 35.997ZM70.0478 36.0047C70.0517 35.9984 70.0555 35.994 70.0644 35.9883C70.0751 35.9815 70.1006 35.9684 70.1512 35.9583L69.9551 34.9777C69.6492 35.0389 69.3702 35.1959 69.1945 35.4833L70.0478 36.0047ZM70.1617 35.9561C70.1727 35.9536 70.1782 35.9542 70.1817 35.9548C70.1858 35.9555 70.1981 35.9582 70.2197 35.971L70.7267 35.109C70.4899 34.9698 70.2214 34.9184 69.9447 34.9799L70.1617 35.9561ZM70.2496 35.9872C70.2889 36.0068 70.3189 36.0342 70.3453 36.09L71.2491 35.662C71.1315 35.4138 70.9455 35.2172 70.6968 35.0928L70.2496 35.9872ZM70.3464 36.0924C70.4828 36.3765 70.6951 36.618 70.9582 36.8227L71.5722 36.0333C71.4033 35.902 71.3036 35.7755 71.2479 35.6596L70.3464 36.0924ZM70.9652 36.828C71.2389 37.0333 71.5568 37.1922 71.9111 37.3103L72.2273 36.3617C71.9576 36.2718 71.7394 36.1587 71.5652 36.028L70.9652 36.828ZM71.9111 37.3103C72.2764 37.4321 72.6579 37.492 73.0532 37.492V36.492C72.7604 36.492 72.486 36.4479 72.2273 36.3617L71.9111 37.3103ZM73.0532 37.492C73.4898 37.492 73.9021 37.4237 74.2847 37.2802L73.9336 36.3438C73.6763 36.4403 73.3846 36.492 73.0532 36.492V37.492ZM74.281 37.2816C74.6736 37.1379 75.011 36.9237 75.2742 36.629L74.5282 35.963C74.3913 36.1163 74.2008 36.2461 73.9374 36.3424L74.281 37.2816ZM75.2799 36.6225C75.5659 36.2907 75.7012 35.8873 75.7012 35.444H74.7012C74.7012 35.6727 74.6364 35.8373 74.5225 35.9695L75.2799 36.6225ZM75.7012 35.444C75.7012 34.8709 75.4681 34.3678 75.0507 33.9504L74.3436 34.6576C74.5982 34.9122 74.7012 35.1691 74.7012 35.444H75.7012ZM75.055 33.9547C74.6081 33.4969 73.9258 33.2678 73.1175 33.1827L73.0128 34.1773C73.7246 34.2522 74.1303 34.4391 74.3394 34.6533L75.055 33.9547ZM73.1133 33.1823C72.1904 33.093 71.5187 32.8266 71.051 32.4247L70.3993 33.1833C71.0676 33.7574 71.9559 34.075 73.017 34.1777L73.1133 33.1823ZM71.051 32.4247C70.5885 32.0274 70.3732 31.5597 70.3732 30.992H69.3732C69.3732 31.8643 69.7259 32.6046 70.3993 33.1833L71.051 32.4247ZM70.3732 30.992C70.3732 30.5637 70.4907 30.2301 70.7068 29.9614L69.9276 29.3346C69.5517 29.8019 69.3732 30.3643 69.3732 30.992H70.3732ZM70.7068 29.9614C70.9396 29.6719 71.2621 29.4402 71.6952 29.2752L71.3392 28.3408C70.7642 28.5598 70.2867 28.8881 69.9276 29.3346L70.7068 29.9614ZM71.6927 29.2762C72.1413 29.108 72.6488 29.02 73.2212 29.02V28.02C72.5456 28.02 71.9171 28.124 71.3416 28.3398L71.6927 29.2762ZM73.2212 29.02C73.6643 29.02 74.0258 29.0819 74.3165 29.1917L74.6699 28.2563C74.2405 28.0941 73.7541 28.02 73.2212 28.02V29.02ZM74.3199 29.193C74.6348 29.3094 74.9003 29.4669 75.1224 29.6629L75.784 28.9131C75.4621 28.6291 75.0876 28.4106 74.6665 28.255L74.3199 29.193ZM75.1224 29.6629C75.3546 29.8678 75.5588 30.1126 75.7343 30.4003L76.5881 29.8797C76.3635 29.5114 76.0958 29.1882 75.784 28.9131L75.1224 29.6629ZM75.7394 30.4084C75.8058 30.5129 75.8002 30.5602 75.7987 30.5698L76.7877 30.7182C76.8342 30.4078 76.7406 30.1191 76.583 29.8716L75.7394 30.4084ZM75.7959 30.5917C75.7956 30.5953 75.7952 30.5949 75.7963 30.5918C75.7974 30.5885 75.7993 30.5844 75.8018 30.5805C75.8043 30.5766 75.8061 30.5748 75.8058 30.5751C75.8053 30.5755 75.8019 30.5788 75.7936 30.5842L76.3368 31.4238C76.5909 31.2593 76.7576 31.0087 76.7904 30.6963L75.7959 30.5917ZM75.7982 30.5813C75.7791 30.5933 75.7699 30.5944 75.7677 30.5947C75.765 30.595 75.7524 30.5963 75.7248 30.5875L75.4216 31.5405C75.7338 31.6398 76.0515 31.604 76.3322 31.4267L75.7982 30.5813ZM75.7248 30.5875C75.6606 30.5671 75.6321 30.5399 75.6099 30.5015L74.7445 31.0025C74.8982 31.2681 75.1337 31.4489 75.4216 31.5405L75.7248 30.5875ZM75.615 30.5105C75.4611 30.2316 75.2692 29.9884 75.0373 29.7867L74.3811 30.5413C74.5172 30.6596 74.6373 30.8084 74.7394 30.9935L75.615 30.5105ZM75.0373 29.7867C74.8024 29.5824 74.5307 29.4281 74.2284 29.3208L73.894 30.2632C74.0877 30.3319 74.248 30.4256 74.3811 30.5413L75.0373 29.7867ZM74.2417 29.3257C73.9232 29.2024 73.5673 29.148 73.1852 29.148V30.148C73.4751 30.148 73.7032 30.1896 73.8807 30.2583L74.2417 29.3257ZM73.1919 29.148C72.5345 29.1392 71.9436 29.2631 71.4463 29.5515L71.948 30.4165C72.2508 30.2409 72.6519 30.1408 73.1784 30.148L73.1919 29.148ZM71.4529 29.5477C71.1855 29.6975 70.9648 29.9009 70.8137 30.1639C70.663 30.426 70.5972 30.7201 70.5972 31.028H71.5972C71.5972 30.8639 71.6314 30.748 71.6807 30.6621C71.7296 30.5771 71.8089 30.4945 71.9415 30.4203L71.4529 29.5477ZM70.5972 31.028C70.5972 31.3552 70.6799 31.6679 70.8364 31.9601L71.7179 31.4879C71.6345 31.3321 71.5972 31.1808 71.5972 31.028H70.5972ZM70.847 31.9789C71.0426 32.309 71.3639 32.553 71.742 32.7374L72.1804 31.8386C71.9024 31.703 71.7677 31.571 71.7073 31.4691L70.847 31.9789ZM71.7462 32.7394C72.1573 32.9352 72.7027 33.055 73.3502 33.1214L73.4522 32.1266C72.8516 32.065 72.437 31.9608 72.1762 31.8366L71.7462 32.7394ZM73.351 33.1215C74.2306 33.2102 74.8563 33.4739 75.2818 33.8672L75.9606 33.1328C75.3301 32.5501 74.4758 32.2298 73.4514 32.1265L73.351 33.1215ZM75.2876 33.8725C75.7063 34.2474 75.9252 34.7422 75.9252 35.408H76.9252C76.9252 34.4898 76.608 33.7126 75.9547 33.1275L75.2876 33.8725ZM75.9252 35.408C75.9252 35.7926 75.8448 36.1 75.7031 36.3479L76.5713 36.8441C76.8136 36.42 76.9252 35.9354 76.9252 35.408H75.9252ZM75.6986 36.3558C75.5513 36.6248 75.3497 36.8532 75.0877 37.0432L75.6747 37.8528C76.0527 37.5788 76.355 37.2392 76.5757 36.8362L75.6986 36.3558ZM75.0896 37.0418C74.8304 37.2279 74.5255 37.3719 74.1688 37.4698L74.4335 38.4342C74.8929 38.3081 75.308 38.1161 75.6728 37.8542L75.0896 37.0418ZM74.1664 37.4705C73.812 37.5697 73.4414 37.62 73.0532 37.62V38.62C73.5289 38.62 73.9904 38.5583 74.436 38.4335L74.1664 37.4705ZM80.8109 37.88L80.9739 37.4073L80.8109 37.88ZM79.5989 37.208L79.2779 37.5914L79.5989 37.208ZM78.8429 36.212L79.303 36.0162L79.2989 36.0065L79.2943 35.997L78.8429 36.212ZM78.8429 35.744L78.4163 35.4833L78.4109 35.4921L78.4058 35.5012L78.8429 35.744ZM79.2749 35.468L79.373 35.9584L79.3834 35.9561L79.2749 35.468ZM79.6949 35.54L79.4414 35.971L79.4561 35.9796L79.4713 35.9872L79.6949 35.54ZM80.0189 35.876L79.567 36.09L79.5681 36.0924L80.0189 35.876ZM80.4869 36.428L80.1799 36.8227L80.1869 36.828L80.4869 36.428ZM81.2909 36.836L81.1328 37.3103L81.2909 36.836ZM83.3309 36.812L83.1591 36.3424L83.1553 36.3438L83.3309 36.812ZM84.1229 36.296L84.4959 36.6291L84.5016 36.6225L84.1229 36.296ZM83.9189 34.304L83.5611 34.6533L83.5654 34.6576L83.9189 34.304ZM82.2869 33.68L82.3392 33.1827L82.3351 33.1823L82.2869 33.68ZM79.9469 32.804L80.2727 32.4247V32.4247L79.9469 32.804ZM80.7389 28.808L80.5633 28.3398L80.5609 28.3408L80.7389 28.808ZM83.7149 28.724L83.5382 29.1917L83.5416 29.193L83.7149 28.724ZM84.6749 29.288L84.3441 29.6629H84.3441L84.6749 29.288ZM85.3829 30.14L84.9559 30.4004L84.9611 30.4084L85.3829 30.14ZM85.5149 30.644L85.0204 30.5698L85.0188 30.5807L85.0177 30.5917L85.5149 30.644ZM85.2869 31.004L85.5539 31.4268L85.5585 31.4238L85.2869 31.004ZM84.7949 31.064L84.6433 31.5405V31.5405L84.7949 31.064ZM84.3989 30.752L83.961 30.9936L83.9662 31.0025L84.3989 30.752ZM83.9309 30.164L84.259 29.7867V29.7867L83.9309 30.164ZM83.2829 29.792L83.1024 30.2583L83.109 30.2608L83.1157 30.2632L83.2829 29.792ZM82.4069 29.648L82.4002 30.148H82.4069V29.648ZM80.9189 29.984L81.1632 30.4203L81.1698 30.4165L80.9189 29.984ZM80.4989 31.724L80.0582 31.9601L80.0633 31.9696L80.0688 31.9789L80.4989 31.724ZM81.1829 32.288L80.9637 32.7374L80.9679 32.7394L81.1829 32.288ZM82.6229 32.624L82.5719 33.1214L82.5727 33.1215L82.6229 32.624ZM84.8429 33.5L84.5035 33.8672L84.5093 33.8725L84.8429 33.5ZM85.3589 36.596L84.9247 36.3479L84.9204 36.3558L85.3589 36.596ZM84.6029 37.448L84.8945 37.8542L84.8964 37.8528L84.6029 37.448ZM83.5229 37.952L83.3905 37.4698L83.3881 37.4705L83.5229 37.952ZM82.2749 37.62C81.816 37.62 81.3832 37.5485 80.9739 37.4073L80.6479 38.3527C81.1666 38.5315 81.7099 38.62 82.2749 38.62V37.62ZM80.9739 37.4073C80.5621 37.2653 80.2129 37.0699 79.9199 36.8246L79.2779 37.5914C79.6729 37.9221 80.1317 38.1747 80.6479 38.3527L80.9739 37.4073ZM79.9199 36.8246C79.6304 36.5822 79.4291 36.3127 79.303 36.0162L78.3828 36.4078C78.5767 36.8633 78.8794 37.2578 79.2779 37.5914L79.9199 36.8246ZM79.2943 35.997C79.2872 35.9821 79.2844 35.9726 79.2833 35.9684C79.2823 35.9644 79.2829 35.9649 79.2829 35.969C79.2829 35.9733 79.2823 35.9783 79.281 35.9831C79.2798 35.9877 79.2787 35.9891 79.28 35.9868L78.4058 35.5012C78.2363 35.8064 78.2524 36.1349 78.3915 36.427L79.2943 35.997ZM79.2695 36.0047C79.2734 35.9984 79.2773 35.994 79.2861 35.9883C79.2968 35.9815 79.3223 35.9684 79.373 35.9583L79.1768 34.9777C78.8709 35.0389 78.5919 35.1959 78.4163 35.4833L79.2695 36.0047ZM79.3834 35.9561C79.3945 35.9536 79.3999 35.9542 79.4034 35.9548C79.4076 35.9555 79.4198 35.9582 79.4414 35.971L79.9484 35.109C79.7117 34.9698 79.4431 34.9184 79.1664 34.9799L79.3834 35.9561ZM79.4713 35.9872C79.5106 36.0068 79.5406 36.0342 79.567 36.09L80.4708 35.662C80.3532 35.4138 80.1672 35.2172 79.9185 35.0928L79.4713 35.9872ZM79.5681 36.0924C79.7045 36.3765 79.9168 36.618 80.1799 36.8227L80.7939 36.0333C80.625 35.902 80.5253 35.7755 80.4697 35.6596L79.5681 36.0924ZM80.1869 36.828C80.4607 37.0333 80.7785 37.1922 81.1328 37.3103L81.449 36.3617C81.1793 36.2718 80.9612 36.1587 80.7869 36.028L80.1869 36.828ZM81.1328 37.3103C81.4981 37.4321 81.8797 37.492 82.2749 37.492V36.492C81.9822 36.492 81.7077 36.4479 81.449 36.3617L81.1328 37.3103ZM82.2749 37.492C82.7115 37.492 83.1238 37.4237 83.5065 37.2802L83.1553 36.3438C82.898 36.4403 82.6063 36.492 82.2749 36.492V37.492ZM83.5027 37.2816C83.8953 37.1379 84.2327 36.9237 84.4959 36.629L83.7499 35.963C83.6131 36.1163 83.4225 36.2461 83.1591 36.3424L83.5027 37.2816ZM84.5016 36.6225C84.7877 36.2907 84.9229 35.8873 84.9229 35.444H83.9229C83.9229 35.6727 83.8582 35.8373 83.7442 35.9695L84.5016 36.6225ZM84.9229 35.444C84.9229 34.8709 84.6899 34.3678 84.2725 33.9504L83.5654 34.6576C83.82 34.9122 83.9229 35.1691 83.9229 35.444H84.9229ZM84.2767 33.9547C83.8298 33.4969 83.1475 33.2678 82.3392 33.1827L82.2346 34.1773C82.9463 34.2522 83.352 34.4391 83.5611 34.6533L84.2767 33.9547ZM82.3351 33.1823C81.4121 33.093 80.7405 32.8266 80.2727 32.4247L79.6211 33.1833C80.2893 33.7574 81.1777 34.075 82.2387 34.1777L82.3351 33.1823ZM80.2727 32.4247C79.8102 32.0274 79.5949 31.5597 79.5949 30.992H78.5949C78.5949 31.8643 78.9476 32.6046 79.6211 33.1833L80.2727 32.4247ZM79.5949 30.992C79.5949 30.5637 79.7124 30.2301 79.9285 29.9614L79.1493 29.3346C78.7734 29.8019 78.5949 30.3643 78.5949 30.992H79.5949ZM79.9285 29.9614C80.1614 29.6719 80.4839 29.4402 80.9169 29.2752L80.5609 28.3408C79.9859 28.5598 79.5085 28.8881 79.1493 29.3346L79.9285 29.9614ZM80.9145 29.2762C81.363 29.108 81.8705 29.02 82.4429 29.02V28.02C81.7673 28.02 81.1388 28.124 80.5633 28.3398L80.9145 29.2762ZM82.4429 29.02C82.886 29.02 83.2476 29.0819 83.5382 29.1917L83.8916 28.2563C83.4623 28.0941 82.9758 28.02 82.4429 28.02V29.02ZM83.5416 29.193C83.8565 29.3094 84.122 29.4669 84.3441 29.6629L85.0057 28.9131C84.6838 28.6291 84.3093 28.4106 83.8882 28.255L83.5416 29.193ZM84.3441 29.6629C84.5763 29.8678 84.7806 30.1126 84.956 30.4003L85.8098 29.8797C85.5853 29.5114 85.3175 29.1882 85.0057 28.9131L84.3441 29.6629ZM84.9611 30.4084C85.0275 30.5129 85.0219 30.5602 85.0204 30.5698L86.0094 30.7182C86.0559 30.4078 85.9623 30.1191 85.8047 29.8716L84.9611 30.4084ZM85.0177 30.5917C85.0173 30.5953 85.017 30.5949 85.018 30.5918C85.0191 30.5885 85.021 30.5844 85.0235 30.5805C85.026 30.5766 85.0278 30.5748 85.0275 30.5751C85.027 30.5755 85.0236 30.5788 85.0153 30.5842L85.5585 31.4238C85.8127 31.2593 85.9793 31.0087 86.0122 30.6963L85.0177 30.5917ZM85.0199 30.5813C85.0009 30.5933 84.9917 30.5944 84.9894 30.5947C84.9867 30.595 84.9742 30.5963 84.9465 30.5875L84.6433 31.5405C84.9555 31.6398 85.2733 31.604 85.5539 31.4267L85.0199 30.5813ZM84.9465 30.5875C84.8824 30.5671 84.8539 30.5399 84.8316 30.5015L83.9662 31.0025C84.12 31.2681 84.3555 31.4489 84.6433 31.5405L84.9465 30.5875ZM84.8367 30.5105C84.6828 30.2316 84.4909 29.9884 84.259 29.7867L83.6028 30.5413C83.7389 30.6596 83.859 30.8084 83.9611 30.9935L84.8367 30.5105ZM84.259 29.7867C84.0241 29.5824 83.7524 29.4281 83.4501 29.3208L83.1157 30.2632C83.3094 30.3319 83.4697 30.4256 83.6028 30.5413L84.259 29.7867ZM83.4634 29.3257C83.1449 29.2024 82.789 29.148 82.4069 29.148V30.148C82.6968 30.148 82.9249 30.1896 83.1024 30.2583L83.4634 29.3257ZM82.4137 29.148C81.7562 29.1392 81.1653 29.2631 80.668 29.5515L81.1698 30.4165C81.4725 30.2409 81.8736 30.1408 82.4002 30.148L82.4137 29.148ZM80.6746 29.5477C80.4072 29.6975 80.1865 29.9009 80.0354 30.1639C79.8847 30.426 79.8189 30.7201 79.8189 31.028H80.8189C80.8189 30.8639 80.8531 30.748 80.9024 30.6621C80.9513 30.5771 81.0306 30.4945 81.1632 30.4203L80.6746 29.5477ZM79.8189 31.028C79.8189 31.3552 79.9016 31.6679 80.0582 31.9601L80.9396 31.4879C80.8562 31.3321 80.8189 31.1808 80.8189 31.028H79.8189ZM80.0688 31.9789C80.2644 32.309 80.5857 32.553 80.9637 32.7374L81.4021 31.8386C81.1242 31.703 80.9894 31.571 80.9291 31.4691L80.0688 31.9789ZM80.9679 32.7394C81.379 32.9352 81.9245 33.055 82.5719 33.1214L82.6739 32.1266C82.0734 32.065 81.6588 31.9608 81.3979 31.8366L80.9679 32.7394ZM82.5727 33.1215C83.4523 33.2102 84.078 33.4739 84.5035 33.8672L85.1823 33.1328C84.5518 32.5501 83.6975 32.2298 82.6731 32.1265L82.5727 33.1215ZM84.5093 33.8725C84.9281 34.2474 85.1469 34.7422 85.1469 35.408H86.1469C86.1469 34.4898 85.8298 33.7126 85.1765 33.1275L84.5093 33.8725ZM85.1469 35.408C85.1469 35.7926 85.0665 36.1 84.9248 36.3479L85.793 36.8441C86.0353 36.42 86.1469 35.9354 86.1469 35.408H85.1469ZM84.9204 36.3558C84.7731 36.6248 84.5714 36.8532 84.3094 37.0432L84.8964 37.8528C85.2744 37.5788 85.5767 37.2392 85.7975 36.8362L84.9204 36.3558ZM84.3113 37.0418C84.0521 37.2279 83.7472 37.3719 83.3905 37.4698L83.6553 38.4342C84.1146 38.3081 84.5297 38.1161 84.8945 37.8542L84.3113 37.0418ZM83.3881 37.4705C83.0337 37.5697 82.6632 37.62 82.2749 37.62V38.62C82.7506 38.62 83.2121 38.5583 83.6577 38.4335L83.3881 37.4705ZM88.7006 37.82L88.3471 38.1736L88.7006 37.82ZM88.7006 28.808L89.0418 29.1735L89.0481 29.1676L89.0542 29.1616L88.7006 28.808ZM95.0126 28.796L94.6591 29.1496L94.6656 29.1561L94.6724 29.1624L95.0126 28.796ZM95.0126 29.624L95.3529 29.9904V29.9904L95.0126 29.624ZM89.7686 29.78V29.28H89.2686V29.78H89.7686ZM89.7686 32.696H89.2686V33.196H89.7686V32.696ZM93.6566 32.864L93.3031 33.2176L93.3096 33.2241L93.3164 33.2304L93.6566 32.864ZM93.6566 33.692L93.9968 34.0584L94.0036 34.0521L94.0102 34.0456L93.6566 33.692ZM89.7686 33.848V33.348H89.2686V33.848H89.7686ZM89.7686 36.848H89.2686V37.348H89.7686V36.848ZM95.0126 37.004L95.3529 36.6376L95.0126 37.004ZM95.0126 37.844L95.3529 38.2104L95.3596 38.2041L95.3662 38.1976L95.0126 37.844ZM89.1446 37.5C89.0957 37.5 89.0766 37.4889 89.0542 37.4664L88.3471 38.1736C88.5647 38.3911 88.8415 38.5 89.1446 38.5V37.5ZM89.0542 37.4664C89.0318 37.444 89.0206 37.4249 89.0206 37.376H88.0206C88.0206 37.6791 88.1295 37.956 88.3471 38.1736L89.0542 37.4664ZM89.0206 37.376V29.252H88.0206V37.376H89.0206ZM89.0206 29.252C89.0206 29.2147 89.0266 29.1968 89.029 29.1909C89.0309 29.1862 89.0334 29.1813 89.0418 29.1735L88.3595 28.4425C88.1254 28.661 88.0206 28.9479 88.0206 29.252H89.0206ZM89.0542 29.1616C89.0766 29.1391 89.0957 29.128 89.1446 29.128V28.128C88.8415 28.128 88.5647 28.2369 88.3471 28.4544L89.0542 29.1616ZM89.1446 29.128H94.5686V28.128H89.1446V29.128ZM94.5686 29.128C94.6432 29.128 94.6561 29.1465 94.6591 29.1496L95.3662 28.4424C95.1452 28.2215 94.8621 28.128 94.5686 28.128V29.128ZM94.6724 29.1624C94.6744 29.1643 94.6747 29.1649 94.6743 29.1643C94.6739 29.1637 94.6739 29.1635 94.6744 29.1647C94.6752 29.1666 94.6806 29.1811 94.6806 29.216H95.6806C95.6806 28.9241 95.5825 28.6429 95.3529 28.4296L94.6724 29.1624ZM94.6806 29.216C94.6806 29.2302 94.6794 29.2398 94.6784 29.2454C94.6774 29.251 94.6764 29.2534 94.6763 29.2536C94.6762 29.2538 94.6762 29.2538 94.6763 29.2536C94.6764 29.2535 94.6764 29.2534 94.6765 29.2534C94.6765 29.2533 94.6765 29.2533 94.6765 29.2533C94.6765 29.2533 94.6763 29.2536 94.6757 29.2542C94.6751 29.2549 94.6741 29.256 94.6724 29.2576L95.3529 29.9904C95.5775 29.7818 95.6806 29.5077 95.6806 29.216H94.6806ZM94.6724 29.2576C94.6711 29.2589 94.6536 29.28 94.5686 29.28V30.28C94.8516 30.28 95.1302 30.1971 95.3529 29.9904L94.6724 29.2576ZM94.5686 29.28H89.7686V30.28H94.5686V29.28ZM89.2686 29.78V32.696H90.2686V29.78H89.2686ZM89.7686 33.196H93.2126V32.196H89.7686V33.196ZM93.2126 33.196C93.2872 33.196 93.3 33.2145 93.3031 33.2176L94.0102 32.5104C93.7892 32.2895 93.5061 32.196 93.2126 32.196V33.196ZM93.3164 33.2304C93.3181 33.232 93.3191 33.2331 93.3197 33.2338C93.3203 33.2344 93.3205 33.2347 93.3205 33.2347C93.3205 33.2347 93.3205 33.2347 93.3204 33.2346C93.3204 33.2346 93.3204 33.2345 93.3203 33.2344C93.3202 33.2342 93.3202 33.2342 93.3203 33.2344C93.3204 33.2346 93.3214 33.237 93.3224 33.2426C93.3234 33.2482 93.3246 33.2578 93.3246 33.272H94.3246C94.3246 32.9803 94.2215 32.7062 93.9968 32.4976L93.3164 33.2304ZM93.3246 33.272C93.3246 33.3163 93.3152 33.3263 93.3031 33.3384L94.0102 34.0456C94.2221 33.8337 94.3246 33.5637 94.3246 33.272H93.3246ZM93.3164 33.3256C93.3151 33.3269 93.2976 33.348 93.2126 33.348V34.348C93.4956 34.348 93.7742 34.2651 93.9968 34.0584L93.3164 33.3256ZM93.2126 33.348H89.7686V34.348H93.2126V33.348ZM89.2686 33.848V36.848H90.2686V33.848H89.2686ZM89.7686 37.348H94.5686V36.348H89.7686V37.348ZM94.5686 37.348C94.6536 37.348 94.6711 37.3691 94.6724 37.3704L95.3529 36.6376C95.1302 36.4309 94.8516 36.348 94.5686 36.348V37.348ZM94.6724 37.3704C94.6741 37.372 94.6751 37.3731 94.6757 37.3738C94.6763 37.3744 94.6765 37.3747 94.6765 37.3747C94.6765 37.3747 94.6765 37.3747 94.6765 37.3746C94.6764 37.3746 94.6764 37.3745 94.6763 37.3744C94.6762 37.3742 94.6762 37.3742 94.6763 37.3744C94.6764 37.3746 94.6774 37.377 94.6784 37.3826C94.6794 37.3882 94.6806 37.3978 94.6806 37.412H95.6806C95.6806 37.1203 95.5775 36.8462 95.3529 36.6376L94.6724 37.3704ZM94.6806 37.412C94.6806 37.4715 94.6665 37.483 94.6591 37.4904L95.3662 38.1976C95.5828 37.981 95.6806 37.7045 95.6806 37.412H94.6806ZM94.6724 37.4776C94.6711 37.4789 94.6536 37.5 94.5686 37.5V38.5C94.8516 38.5 95.1302 38.4171 95.3529 38.2104L94.6724 37.4776ZM94.5686 37.5H89.1446V38.5H94.5686V37.5ZM99.395 37.88L99.558 37.4073L99.395 37.88ZM98.183 37.208L97.862 37.5914L98.183 37.208ZM97.427 36.212L97.887 36.0162L97.8829 36.0065L97.8784 35.997L97.427 36.212ZM97.427 35.744L97.0003 35.4833L96.9949 35.4921L96.9899 35.5012L97.427 35.744ZM97.859 35.468L97.957 35.9584L97.9674 35.9561L97.859 35.468ZM98.279 35.54L98.0255 35.971L98.0401 35.9796L98.0554 35.9872L98.279 35.54ZM98.603 35.876L98.1511 36.09L98.1522 36.0924L98.603 35.876ZM99.071 36.428L98.764 36.8227L98.771 36.828L99.071 36.428ZM99.875 36.836L99.7169 37.3103L99.875 36.836ZM101.915 36.812L101.743 36.3424L101.739 36.3438L101.915 36.812ZM102.707 36.296L103.08 36.6291L103.086 36.6225L102.707 36.296ZM102.503 34.304L102.145 34.6533L102.149 34.6576L102.503 34.304ZM100.871 33.68L100.923 33.1827L100.919 33.1823L100.871 33.68ZM98.531 32.804L98.8568 32.4247V32.4247L98.531 32.804ZM99.323 28.808L99.1474 28.3398L99.145 28.3408L99.323 28.808ZM102.299 28.724L102.122 29.1917L102.126 29.193L102.299 28.724ZM103.259 29.288L102.928 29.6629H102.928L103.259 29.288ZM103.967 30.14L103.54 30.4004L103.545 30.4084L103.967 30.14ZM104.099 30.644L103.604 30.5698L103.603 30.5807L103.602 30.5917L104.099 30.644ZM103.871 31.004L104.138 31.4268L104.143 31.4238L103.871 31.004ZM103.379 31.064L103.227 31.5405V31.5405L103.379 31.064ZM102.983 30.752L102.545 30.9936L102.55 31.0025L102.983 30.752ZM102.515 30.164L102.843 29.7867V29.7867L102.515 30.164ZM101.867 29.792L101.686 30.2583L101.693 30.2608L101.7 30.2632L101.867 29.792ZM100.991 29.648L100.984 30.148H100.991V29.648ZM99.503 29.984L99.7473 30.4203L99.7538 30.4165L99.503 29.984ZM99.083 31.724L98.6422 31.9601L98.6473 31.9696L98.6528 31.9789L99.083 31.724ZM99.767 32.288L99.5477 32.7374L99.552 32.7394L99.767 32.288ZM101.207 32.624L101.156 33.1214L101.157 33.1215L101.207 32.624ZM103.427 33.5L103.088 33.8672L103.093 33.8725L103.427 33.5ZM103.943 36.596L103.509 36.3479L103.504 36.3558L103.943 36.596ZM103.187 37.448L103.479 37.8542L103.48 37.8528L103.187 37.448ZM102.107 37.952L101.975 37.4698L101.972 37.4705L102.107 37.952ZM100.859 37.62C100.4 37.62 99.9673 37.5485 99.558 37.4073L99.232 38.3527C99.7506 38.5315 100.294 38.62 100.859 38.62V37.62ZM99.558 37.4073C99.1462 37.2653 98.797 37.0699 98.5039 36.8246L97.862 37.5914C98.257 37.9221 98.7157 38.1747 99.232 38.3527L99.558 37.4073ZM98.5039 36.8246C98.2144 36.5822 98.0132 36.3127 97.887 36.0162L96.9669 36.4078C97.1607 36.8633 97.4635 37.2578 97.862 37.5914L98.5039 36.8246ZM97.8784 35.997C97.8713 35.9821 97.8684 35.9726 97.8674 35.9684C97.8664 35.9644 97.867 35.9649 97.867 35.969C97.867 35.9733 97.8663 35.9783 97.8651 35.9831C97.8639 35.9877 97.8628 35.9891 97.864 35.9868L96.9899 35.5012C96.8203 35.8064 96.8364 36.1349 96.9755 36.427L97.8784 35.997ZM97.8536 36.0047C97.8575 35.9984 97.8613 35.994 97.8702 35.9883C97.8808 35.9815 97.9063 35.9684 97.957 35.9583L97.7609 34.9777C97.455 35.0389 97.176 35.1959 97.0003 35.4833L97.8536 36.0047ZM97.9674 35.9561C97.9785 35.9536 97.984 35.9542 97.9875 35.9548C97.9916 35.9555 98.0038 35.9582 98.0255 35.971L98.5325 35.109C98.2957 34.9698 98.0272 34.9184 97.7505 34.9799L97.9674 35.9561ZM98.0554 35.9872C98.0946 36.0068 98.1247 36.0342 98.1511 36.09L99.0548 35.662C98.9373 35.4138 98.7513 35.2172 98.5026 35.0928L98.0554 35.9872ZM98.1522 36.0924C98.2886 36.3765 98.5009 36.618 98.764 36.8227L99.3779 36.0333C99.209 35.902 99.1093 35.7755 99.0537 35.6596L98.1522 36.0924ZM98.771 36.828C99.0447 37.0333 99.3625 37.1922 99.7169 37.3103L100.033 36.3617C99.7634 36.2718 99.5452 36.1587 99.371 36.028L98.771 36.828ZM99.7169 37.3103C100.082 37.4321 100.464 37.492 100.859 37.492V36.492C100.566 36.492 100.292 36.4479 100.033 36.3617L99.7169 37.3103ZM100.859 37.492C101.296 37.492 101.708 37.4237 102.091 37.2802L101.739 36.3438C101.482 36.4403 101.19 36.492 100.859 36.492V37.492ZM102.087 37.2816C102.479 37.1379 102.817 36.9237 103.08 36.629L102.334 35.963C102.197 36.1163 102.007 36.2461 101.743 36.3424L102.087 37.2816ZM103.086 36.6225C103.372 36.2907 103.507 35.8873 103.507 35.444H102.507C102.507 35.6727 102.442 35.8373 102.328 35.9695L103.086 36.6225ZM103.507 35.444C103.507 34.8709 103.274 34.3678 102.857 33.9504L102.149 34.6576C102.404 34.9122 102.507 35.1691 102.507 35.444H103.507ZM102.861 33.9547C102.414 33.4969 101.732 33.2678 100.923 33.1827L100.819 34.1773C101.53 34.2522 101.936 34.4391 102.145 34.6533L102.861 33.9547ZM100.919 33.1823C99.9962 33.093 99.3245 32.8266 98.8568 32.4247L98.2051 33.1833C98.8734 33.7574 99.7617 34.075 100.823 34.1777L100.919 33.1823ZM98.8568 32.4247C98.3943 32.0274 98.179 31.5597 98.179 30.992H97.179C97.179 31.8643 97.5316 32.6046 98.2051 33.1833L98.8568 32.4247ZM98.179 30.992C98.179 30.5637 98.2965 30.2301 98.5126 29.9614L97.7334 29.3346C97.3575 29.8019 97.179 30.3643 97.179 30.992H98.179ZM98.5126 29.9614C98.7454 29.6719 99.0679 29.4402 99.501 29.2752L99.145 28.3408C98.57 28.5598 98.0925 28.8881 97.7334 29.3346L98.5126 29.9614ZM99.4985 29.2762C99.9471 29.108 100.455 29.02 101.027 29.02V28.02C100.351 28.02 99.7229 28.124 99.1474 28.3398L99.4985 29.2762ZM101.027 29.02C101.47 29.02 101.832 29.0819 102.122 29.1917L102.476 28.2563C102.046 28.0941 101.56 28.02 101.027 28.02V29.02ZM102.126 29.193C102.441 29.3094 102.706 29.4669 102.928 29.6629L103.59 28.9131C103.268 28.6291 102.893 28.4106 102.472 28.255L102.126 29.193ZM102.928 29.6629C103.16 29.8678 103.365 30.1126 103.54 30.4003L104.394 29.8797C104.169 29.5114 103.902 29.1882 103.59 28.9131L102.928 29.6629ZM103.545 30.4084C103.612 30.5129 103.606 30.5602 103.604 30.5698L104.593 30.7182C104.64 30.4078 104.546 30.1191 104.389 29.8716L103.545 30.4084ZM103.602 30.5917C103.601 30.5953 103.601 30.5949 103.602 30.5918C103.603 30.5885 103.605 30.5844 103.608 30.5805C103.61 30.5766 103.612 30.5748 103.612 30.5751C103.611 30.5755 103.608 30.5788 103.599 30.5842L104.143 31.4238C104.397 31.2593 104.563 31.0087 104.596 30.6963L103.602 30.5917ZM103.604 30.5813C103.585 30.5933 103.576 30.5944 103.573 30.5947C103.571 30.595 103.558 30.5963 103.531 30.5875L103.227 31.5405C103.54 31.6398 103.857 31.604 104.138 31.4267L103.604 30.5813ZM103.531 30.5875C103.466 30.5671 103.438 30.5399 103.416 30.5015L102.55 31.0025C102.704 31.2681 102.94 31.4489 103.227 31.5405L103.531 30.5875ZM103.421 30.5105C103.267 30.2316 103.075 29.9884 102.843 29.7867L102.187 30.5413C102.323 30.6596 102.443 30.8084 102.545 30.9935L103.421 30.5105ZM102.843 29.7867C102.608 29.5824 102.337 29.4281 102.034 29.3208L101.7 30.2632C101.893 30.3319 102.054 30.4256 102.187 30.5413L102.843 29.7867ZM102.047 29.3257C101.729 29.2024 101.373 29.148 100.991 29.148V30.148C101.281 30.148 101.509 30.1896 101.686 30.2583L102.047 29.3257ZM100.998 29.148C100.34 29.1392 99.7494 29.2631 99.2521 29.5515L99.7538 30.4165C100.057 30.2409 100.458 30.1408 100.984 30.148L100.998 29.148ZM99.2587 29.5477C98.9913 29.6975 98.7706 29.9009 98.6195 30.1639C98.4688 30.426 98.403 30.7201 98.403 31.028H99.403C99.403 30.8639 99.4372 30.748 99.4865 30.6621C99.5354 30.5771 99.6147 30.4945 99.7473 30.4203L99.2587 29.5477ZM98.403 31.028C98.403 31.3552 98.4857 31.6679 98.6422 31.9601L99.5237 31.4879C99.4403 31.3321 99.403 31.1808 99.403 31.028H98.403ZM98.6528 31.9789C98.8484 32.309 99.1697 32.553 99.5478 32.7374L99.9862 31.8386C99.7082 31.703 99.5735 31.571 99.5131 31.4691L98.6528 31.9789ZM99.552 32.7394C99.9631 32.9352 100.509 33.055 101.156 33.1214L101.258 32.1266C100.657 32.065 100.243 31.9608 99.9819 31.8366L99.552 32.7394ZM101.157 33.1215C102.036 33.2102 102.662 33.4739 103.088 33.8672L103.766 33.1328C103.136 32.5501 102.282 32.2298 101.257 32.1265L101.157 33.1215ZM103.093 33.8725C103.512 34.2474 103.731 34.7422 103.731 35.408H104.731C104.731 34.4898 104.414 33.7126 103.761 33.1275L103.093 33.8725ZM103.731 35.408C103.731 35.7926 103.651 36.1 103.509 36.3479L104.377 36.8441C104.619 36.42 104.731 35.9354 104.731 35.408H103.731ZM103.504 36.3558C103.357 36.6248 103.155 36.8532 102.893 37.0432L103.48 37.8528C103.858 37.5788 104.161 37.2392 104.382 36.8362L103.504 36.3558ZM102.895 37.0418C102.636 37.2279 102.331 37.3719 101.975 37.4698L102.239 38.4342C102.699 38.3081 103.114 38.1161 103.479 37.8542L102.895 37.0418ZM101.972 37.4705C101.618 37.5697 101.247 37.62 100.859 37.62V38.62C101.335 38.62 101.796 38.5583 102.242 38.4335L101.972 37.4705Z" fill="#235984"/>
</svg>
